# AST/ASF file generated using VICON BodyLanguage
# -----------------------------------------------
:version 1.10
:name VICON
:units
  mass 1.0
  length 0.45
  angle deg
:documentation
   .ast/.asf automatically generated from VICON data using
   VICON BodyBuilder and BodyLanguage model FoxedUp or BRILLIANT.MOD
:root
   order TX TY TZ RX RY RZ
   axis XYZ
   position 0 0 0  
   orientation 0 0 0 
:bonedata
  begin
     id 1 
     name lhipjoint
     direction 0.646657 -0.683706 0.338203 
     length 2.4948 
     axis 0 0 0  XYZ
  end
  begin
     id 2 
     name lfemur
     direction 0.34202 -0.939693 0  
     length 6.79491  
     axis 0 0 20  XYZ
    dof rx ry rz
    limits (-160.0 20.0)
           (-70.0 70.0)
           (-60.0 70.0)
  end
  begin
     id 3 
     name ltibia
     direction 0.34202 -0.939693 0   
     length 7.56807   
     axis 0 0 20   XYZ
    dof rx
    limits (-10.0 170.0)
  end
  begin
     id 4 
     name lfoot
     direction 0.0679796 -0.186772 0.980048   
     length 2.53018   
     axis -90 7.62852e-016 20   XYZ
    dof rx rz
    limits (-45.0 90.0)
           (-70.0 20.0)
  end
  begin
     id 5 
     name ltoes
     direction 1.53625e-011 -4.21881e-011 1   
     length 1.26912   
     axis -90 7.62852e-016 20   XYZ
    dof rx
    limits (-90.0 20.0)
  end
  begin
     id 6 
     name rhipjoint
     direction -0.618868 -0.704065 0.348274   
     length 2.42265  
     axis 0 0 0  XYZ 
  end
  begin
     id 7 
     name rfemur
     direction -0.34202 -0.939693 0   
     length 6.73814   
     axis 0 0 -20   XYZ
    dof rx ry rz
    limits (-160.0 20.0)
           (-70.0 70.0)
           (-70.0 60.0)
  end
  begin
     id 8 
     name rtibia
     direction -0.34202 -0.939693 0   
     length 7.66799   
     axis 0 0 -20   XYZ
    dof rx
    limits (-10.0 170.0)
 end
 begin
     id 9 
     name rfoot
     direction -0.0727352 -0.199838 0.977125   
     length 2.57224  
     axis -90 -7.62852e-016 -20   XYZ
    dof rx rz
    limits (-45.0 90.0)
           (-20.0 70.0)
  end
  begin
     id 10 
     name rtoes
     direction -1.53501e-011 -4.21858e-011 1   
     length 1.28858   
     axis -90 -7.62852e-016 -20   XYZ
    dof rx
    limits (-90.0 20.0)
  end
  begin
     id 11 
     name lowerback
     direction -0.0172471 0.995767 -0.0902851   
     length 2.20206   
     axis 0 0 0   XYZ
    dof rx ry rz
    limits (-20.0 45.0)
           (-30.0 30.0)
           (-30.0 30.0)
  end
  begin
     id 12 
     name upperback
     direction -0.000110737 0.999714 0.0239043   
     length 2.19523   
     axis 0 0 0   XYZ
    dof rx ry rz
    limits (-20.0 45.0)
           (-30.0 30.0)
           (-30.0 30.0)
  end
  begin
     id 13 
     name thorax
     direction 0.00704869 0.997783 0.0661741   
     length 2.21977   
     axis 0 0 0   XYZ
    dof rx ry rz
    limits (-20.0 45.0)
           (-30.0 30.0)
           (-30.0 30.0)
  end
  begin
     id 14 
     name lowerneck
     direction -0.00407501 0.995527 0.0943846   
     length 1.83142   
     axis 0 0 0   XYZ
    dof rx ry rz
    limits (-20.0 45.0)
           (-30.0 30.0)
           (-30.0 30.0)
  end
  begin
     id 15 
     name upperneck
     direction 0.0640586 0.986486 -0.150807   
     length 1.84616   
     axis 0 0 0   XYZ
    dof rx ry rz
    limits (-20.0 45.0)
           (-30.0 30.0)
           (-30.0 30.0)
  end
  begin
     id 16
     name head
     direction 0.0188017 0.99791 -0.0618239  
     length 1.85932  
     axis 0 0 0   XYZ
    dof rx ry rz
    limits (-20.0 45.0)
           (-30.0 30.0)
           (-30.0 30.0)
  end
  begin
     id 17 
     name lclavicle
     direction 0.976074 0.206905 0.066852  
     length 3.81043  
     axis 0 0 0   XYZ
    dof ry rz
    limits (-20.0 10.0)
           (0.0 20.0)
  end
  begin
     id 18 
     name lhumerus
     direction 1 -4.48971e-011 1.86916e-027   
     length 5.37587   
     axis 180 -30 -90   XYZ
    dof rx ry rz
    limits (-60.0 90.0)
           (-90.0 90.0)
           (-90.0 90.0)
  end
  begin
     id 19
     name lradius
     direction 1 -4.48968e-011 1.69187e-027   
     length 3.35977   
     axis 180 -30 -90   XYZ
    dof rx
    limits (-10.0 170.0)
  end
  begin
     id 20
     name lwrist
     direction 1 -4.48968e-011 5.8978e-027   
     length 1.67988   
     axis -3.27506e-015 90 90   XYZ
    dof ry
    limits (-180.0 0.0)
 end
  begin
     id 21 
     name lhand
     direction 1 -4.49028e-011 1.18071e-026   
     length 0.561859   
     axis -7.52654e-015 90 90   XYZ
    dof rx rz
    limits (-90.0 90.0)
           (-45.0 45.0)
  end
  begin
     id 22 
     name lfingers
     direction 1 -4.48927e-011 2.35758e-026   
     length 0.452985   
     axis -1.50534e-014 90 90   XYZ
    dof rx
    limits (0.0 90.0)
  end
  begin
     id 23
     name lthumb
     direction 0.707107 -6.34898e-011 0.707107   
     length 0.650399   
     axis -90 45 5.69224e-014   XYZ
    dof rx rz
    limits (-45.0 45.0)
           (-45.0 45.0)
  end
  begin
     id 24 
     name rclavicle
     direction -0.988403 0.151789 0.00439714   
     length 3.6942  
     axis 0 0 0   XYZ 
    dof ry rz
    limits (-10.0 20.0)
           (-20.0 0.0)
  end
  begin
     id 25 
     name rhumerus
     direction -1 -4.48978e-011 1.62495e-027  
     length 5.22819   
     axis 180 30 90   XYZ
    dof rx ry rz
    limits (-90.0 60.0)
           (-90.0 90.0)
           (-90.0 90.0)
  end
  begin
     id 26 
     name rradius
     direction -1 -4.48961e-011 3.47796e-027   
     length 3.40764   
     axis 180 30 90   XYZ
    dof rx
    limits (-10.0 170.0)
  end
  begin
     id 27 
     name rwrist
     direction -1 -4.48949e-011 5.89602e-027   
     length 1.70382   
     axis -3.27506e-015 -90 -90   XYZ
    dof ry
    limits (-180.0 0.0)
  end
  begin
     id 28
     name rhand
     direction -1 -4.48977e-011 1.17973e-026   
     length 0.583255   
     axis -7.52654e-015 -90 -90   XYZ
    dof rx rz
    limits (-90.0 90.0)
           (-45.0 45.0)
  end
  begin
     id 29
     name rfingers
     direction -1 -4.49099e-011 2.36408e-026   
     length 0.470235   
     axis -1.50534e-014 -90 -90   XYZ
    dof rx
    limits (0.0 90.0)
  end
  begin
     id 30
     name rthumb
     direction -0.707107 -6.35011e-011 0.707107   
     length 0.675167   
     axis -90 -45 -5.69224e-014   XYZ
    dof rx rz
    limits (-45.0 45.0)
           (-45.0 45.0)
  end
:hierarchy
  begin
    root lhipjoint rhipjoint lowerback
    lhipjoint lfemur
    lfemur ltibia
    ltibia lfoot
    lfoot ltoes
    rhipjoint rfemur
    rfemur rtibia
    rtibia rfoot
    rfoot rtoes
    lowerback upperback
    upperback thorax
    thorax lowerneck lclavicle rclavicle
    lowerneck upperneck
    upperneck head
    lclavicle lhumerus
    lhumerus lradius
    lradius lwrist
    lwrist lhand lthumb
    lhand lfingers
    rclavicle rhumerus
    rhumerus rradius
    rradius rwrist
    rwrist rhand rthumb
    rhand rfingers
  end

#!OML:ASF G:\JayActor3\Patient Classification 1\Patient 1\Session 2\male.ASF
:FULLY-SPECIFIED
:DEGREES
205
root 48.5262 16.7626 -8.1583 24.8717 -85.1333 -22.6139
lowerback -5.72863 0.249058 -0.751467
upperback 0.280617 0.371269 0.253005
thorax 3.49565 0.16733 0.71475
lowerneck -12.6752 -3.95434 -3.53496
upperneck 9.27991 -5.83423 8.67897
head 5.23785 -2.43352 2.80001
rclavicle -7.42647e-015 -1.98785e-016
rhumerus -48.08 3.30872 -91.7337
rradius 83.147
rwrist -9.31769
rhand -26.5434 18.4489
rfingers 7.12502
rthumb 0.020907 -11.5308
lclavicle -7.42647e-015 -1.98785e-016
lhumerus -49.5818 -11.5202 93.7493
lradius 91.2955
lwrist 36.0363
lhand -13.9827 7.64205
lfingers 7.12502
lthumb 12.1457 37.2695
rfemur -11.0417 -1.87009 23.6678
rtibia 31.6736
rfoot -23.9077 -7.5172
rtoes 19.419
lfemur -5.60166 3.23244 -16.5079
ltibia 21.2479
lfoot -14.3703 8.12879
ltoes -9.3463
206
root 48.5252 16.7621 -8.1578 25.1194 -85.178 -22.8718
lowerback -5.73864 0.257643 -0.745379
upperback 0.259503 0.382616 0.240393
thorax 3.47937 0.173278 0.699278
lowerneck -12.657 -3.95451 -3.51684
upperneck 9.33368 -5.84252 8.67697
head 5.25145 -2.4365 2.79585
rclavicle -2.37253e-014 2.78299e-015
rhumerus -48.0228 3.52905 -91.7191
rradius 82.7676
rwrist -8.98668
rhand -26.0413 17.6971
rfingers 7.12502
rthumb 0.505877 -12.282
lclavicle -2.37253e-014 2.78299e-015
lhumerus -49.4475 -11.5197 93.7337
lradius 90.9835
lwrist 35.8515
lhand -13.809 7.83995
lfingers 7.12502
lthumb 12.3132 37.4574
rfemur -11.0337 -1.85629 23.6658
rtibia 31.6793
rfoot -23.8981 -7.49456
rtoes 19.3907
lfemur -5.57838 3.25459 -16.5068
ltibia 21.2481
lfoot -14.3867 8.15009
ltoes -9.34068
207
root 48.5236 16.7613 -8.15724 25.5217 -85.2454 -23.2873
lowerback -5.75851 0.276489 -0.738531
upperback 0.241745 0.407603 0.229522
thorax 3.47188 0.18595 0.686432
lowerneck -12.6353 -3.95573 -3.50297
upperneck 9.38274 -5.85175 8.67927
head 5.26334 -2.44001 2.7937
rclavicle -1.69883e-014 1.2921e-014
rhumerus -47.9554 3.7758 -91.7054
rradius 82.3532
rwrist -8.55469
rhand -25.5542 16.9742
rfingers 7.12502
rthumb 0.976284 -13.0033
lclavicle -1.69883e-014 1.2921e-014
lhumerus -49.3012 -11.5101 93.7175
lradius 90.6482
lwrist 35.7139
lhand -13.6107 8.03231
lfingers 7.12502
lthumb 12.5045 37.6382
rfemur -11.0229 -1.83691 23.6648
rtibia 31.6862
rfoot -23.8794 -7.45648
rtoes 19.3489
lfemur -5.54613 3.28968 -16.5036
ltibia 21.2501
lfoot -14.4116 8.18426
ltoes -9.34418
208
root 48.5211 16.7602 -8.15635 26.0693 -85.3307 -23.8555
lowerback -5.78561 0.302855 -0.727177
upperback 0.229437 0.44231 0.22086
thorax 3.47395 0.203458 0.674261
lowerneck -12.6149 -3.95772 -3.49405
upperneck 9.43205 -5.86125 8.68254
head 5.2757 -2.4437 2.79262
rclavicle 1.52552e-014 1.19271e-015
rhumerus -47.8852 4.06057 -91.6952
rradius 81.9159
rwrist -8.05075
rhand -25.072 16.2816
rfingers 7.12502
rthumb 1.44203 -13.6933
lclavicle 1.52552e-014 1.19271e-015
lhumerus -49.1444 -11.4885 93.702
lradius 90.2927
lwrist 35.6254
lhand -13.4004 8.21302
lfingers 7.12502
lthumb 12.7072 37.8064
rfemur -11.0034 -1.81844 23.6639
rtibia 31.6947
rfoot -23.853 -7.40213
rtoes 19.2925
lfemur -5.49912 3.32937 -16.4985
ltibia 21.2543
lfoot -14.4482 8.23245
ltoes -9.35563
209
root 48.5182 16.7589 -8.15524 26.7457 -85.4289 -24.5556
lowerback -5.81568 0.335288 -0.710823
upperback 0.217945 0.484737 0.213182
thorax 3.47846 0.224867 0.661013
lowerneck -12.5905 -3.95984 -3.49104
upperneck 9.48084 -5.87045 8.6898
head 5.2875 -2.44732 2.79385
rclavicle -4.44392e-015 6.55989e-015
rhumerus -47.8202 4.38138 -91.6901
rradius 81.4613
rwrist -7.51608
rhand -24.5624 15.6079
rfingers 7.12502
rthumb 1.9342 -14.3631
lclavicle -4.44392e-015 6.55989e-015
lhumerus -48.9863 -11.4568 93.6884
lradius 89.9229
lwrist 35.582
lhand -13.1953 8.38156
lfingers 7.12502
lthumb 12.905 37.9625
rfemur -10.9806 -1.80034 23.6632
rtibia 31.7036
rfoot -23.8201 -7.33408
rtoes 19.2286
lfemur -5.44468 3.37236 -16.4924
ltibia 21.2604
lfoot -14.4911 8.29214
ltoes -9.37671
210
root 48.5151 16.7574 -8.15394 27.2818 -85.5046 -25.1259
lowerback -5.83711 0.359252 -0.695779
upperback 0.207874 0.5159 0.206246
thorax 3.47978 0.240665 0.648247
lowerneck -12.5617 -3.96071 -3.49532
upperneck 9.53125 -5.87752 8.70187
head 5.29932 -2.44993 2.79802
rclavicle -1.24403e-014 0
rhumerus -47.7559 4.73587 -91.6919
rradius 80.9849
rwrist -7.00073
rhand -24.0124 14.9462
rfingers 7.12502
rthumb 2.4654 -15.0193
lclavicle -1.24403e-014 0
lhumerus -48.8347 -11.4137 93.6785
lradius 89.5481
lwrist 35.58
lhand -13.0221 8.51966
lfingers 7.12502
lthumb 13.0719 38.09
rfemur -10.9421 -1.78916 23.6617
rtibia 31.712
rfoot -23.8004 -7.27705
rtoes 19.1766
lfemur -5.38181 3.40034 -16.4864
ltibia 21.2673
lfoot -14.5324 8.33998
ltoes -9.38319
211
root 48.5123 16.756 -8.1527 27.5825 -85.5437 -25.4643
lowerback -5.84765 0.36912 -0.68308
upperback 0.195666 0.528362 0.199047
thorax 3.47306 0.247171 0.634802
lowerneck -12.5319 -3.95944 -3.50127
upperneck 9.58572 -5.88186 8.71453
head 5.31209 -2.45118 2.80292
rclavicle -4.65902e-018 -3.97569e-015
rhumerus -47.6959 5.1196 -91.706
rradius 80.4943
rwrist -6.54873
rhand -23.4203 14.2796
rfingers 7.12502
rthumb 3.03719 -15.6785
lclavicle -4.65902e-018 -3.97569e-015
lhumerus -48.6911 -11.3572 93.669
lradius 89.1786
lwrist 35.6189
lhand -12.8879 8.64705
lfingers 7.12502
lthumb 13.2013 38.2091
rfemur -10.8958 -1.78659 23.6624
rtibia 31.7184
rfoot -23.7976 -7.24266
rtoes 19.1418
lfemur -5.32291 3.40815 -16.4795
ltibia 21.2737
lfoot -14.5628 8.36881
ltoes -9.38685
212
root 48.51 16.7548 -8.15164 27.6988 -85.5579 -25.6125
lowerback -5.85356 0.367869 -0.675206
upperback 0.177335 0.526253 0.191812
thorax 3.4576 0.246386 0.622686
lowerneck -12.4985 -3.95515 -3.50935
upperneck 9.64428 -5.88232 8.72834
head 5.3254 -2.45055 2.80893
rclavicle -8.97055e-016 -1.19271e-015
rhumerus -47.64 5.54166 -91.7343
rradius 79.9897
rwrist -6.20037
rhand -22.7844 13.5881
rfingers 7.12502
rthumb 3.65127 -16.3603
lclavicle -8.97055e-016 -1.19271e-015
lhumerus -48.5688 -11.2831 93.6598
lradius 88.8382
lwrist 35.7086
lhand -12.7951 8.75462
lfingers 7.12502
lthumb 13.2907 38.3108
rfemur -10.8539 -1.78657 23.6635
rtibia 31.7228
rfoot -23.8062 -7.22623
rtoes 19.1298
lfemur -5.27573 3.40268 -16.4739
ltibia 21.278
lfoot -14.5833 8.38379
ltoes -9.38075
213
root 48.5084 16.7542 -8.15087 27.6309 -85.5474 -25.5629
lowerback -5.85936 0.354959 -0.672128
upperback 0.152185 0.508917 0.183118
thorax 3.43524 0.237985 0.610396
lowerneck -12.4691 -3.94766 -3.51323
upperneck 9.70736 -5.87929 8.74022
head 5.34037 -2.44799 2.8139
rclavicle -9.92254e-015 2.78299e-015
rhumerus -47.5805 5.99277 -91.7796
rradius 79.4699
rwrist -5.95124
rhand -22.1125 12.8527
rfingers 7.12502
rthumb 4.30009 -17.0837
lclavicle -9.92254e-015 2.78299e-015
lhumerus -48.4643 -11.1871 93.6449
lradius 88.5407
lwrist 35.8662
lhand -12.7436 8.86264
lfingers 7.12502
lthumb 13.3404 38.4156
rfemur -10.826 -1.78896 23.6654
rtibia 31.7252
rfoot -23.824 -7.22959
rtoes 19.1362
lfemur -5.24956 3.38244 -16.471
ltibia 21.2792
lfoot -14.5924 8.38555
ltoes -9.36521
214
root 48.5068 16.7536 -8.15012 27.656 -85.5516 -25.5986
lowerback -5.87028 0.34542 -0.667295
upperback 0.124533 0.496024 0.172153
thorax 3.41313 0.231829 0.595199
lowerneck -12.447 -3.93823 -3.50931
upperneck 9.77506 -5.87465 8.74731
head 5.35753 -2.4444 2.81614
rclavicle 5.52715e-015 2.78299e-015
rhumerus -47.5214 6.476 -91.8415
rradius 78.9408
rwrist -5.78495
rhand -21.4059 12.0722
rfingers 7.12502
rthumb 4.98239 -17.8492
lclavicle 5.52715e-015 2.78299e-015
lhumerus -48.3802 -11.0621 93.6205
lradius 88.3055
lwrist 36.1184
lhand -12.7212 8.97442
lfingers 7.12502
lthumb 13.3619 38.526
rfemur -10.8081 -1.78508 23.6659
rtibia 31.7269
rfoot -23.8351 -7.22578
rtoes 19.1421
lfemur -5.22654 3.37147 -16.47
ltibia 21.2761
lfoot -14.6012 8.39483
ltoes -9.34712
215
root 48.5054 16.7534 -8.14943 27.8362 -85.5811 -25.7774
lowerback -5.88751 0.342501 -0.661455
upperback 0.0930086 0.491948 0.15876
thorax 3.39046 0.23008 0.577732
lowerneck -12.4305 -3.92638 -3.49873
upperneck 9.84254 -5.8676 8.75247
head 5.37516 -2.43938 2.81683
rclavicle -8.09737e-015 5.56597e-015
rhumerus -47.4554 6.98564 -91.9156
rradius 78.3899
rwrist -5.64422
rhand -20.6498 11.2805
rfingers 7.12502
rthumb 5.71247 -18.6225
lclavicle -8.09737e-015 5.56597e-015
lhumerus -48.3191 -10.9019 93.5835
lradius 88.1474
lwrist 36.4922
lhand -12.7057 9.09014
lfingers 7.12502
lthumb 13.3768 38.6407
rfemur -10.8068 -1.77321 23.6632
rtibia 31.7289
rfoot -23.8343 -7.20807
rtoes 19.1428
lfemur -5.21045 3.37523 -16.473
ltibia 21.2694
lfoot -14.6128 8.41652
ltoes -9.32065
